<?xml version="1.0" encoding="UTF-8"?>
<svg version="1.1" xmlns="http://www.w3.org/2000/svg" width="512" height="512">
<path d="M0 0 C4.23653539 0.00231718 8.47306716 -0.00125596 12.70960176 -0.00397992 C20.95507679 -0.0083702 29.2005426 -0.00749186 37.44601796 -0.00456728 C44.15882085 -0.00228707 50.8716212 -0.00201191 57.58442438 -0.0030911 C59.03034568 -0.00332095 59.03034568 -0.00332095 60.50547751 -0.00355544 C62.46508315 -0.00387524 64.42468878 -0.00419945 66.38429441 -0.00452803 C84.65318872 -0.00736286 102.92207798 -0.00412699 121.19097146 0.00127234 C136.79700199 0.00574213 152.40302509 0.00495909 168.0090555 0.00035357 C186.23082947 -0.00502153 204.45259903 -0.00709208 222.67437369 -0.00403416 C224.62429984 -0.00371568 226.574226 -0.00340131 228.52415216 -0.0030911 C229.48300874 -0.00293682 230.44186532 -0.00278255 231.42977816 -0.0026236 C238.12113029 -0.00176749 244.81247958 -0.00320151 251.50383127 -0.00557065 C259.67703244 -0.00840152 267.85022403 -0.00756197 276.02342413 -0.00228991 C280.17702997 0.00030283 284.33061997 0.00142929 288.48422563 -0.00193906 C303.92079385 -0.01316087 319.35432033 0.04529056 334.78632295 0.45131183 C335.95126828 0.47328974 337.11621361 0.49526765 338.31646031 0.51791155 C356.10446506 1.08465899 368.73121063 8.47166068 380.71974885 21.13072467 C389.59395044 31.02434852 394.76234605 41.47748795 395.3366617 54.80516315 C395.37427736 55.603966 395.41189302 56.40276886 395.45064855 57.22577786 C396.02529067 71.50314821 395.86099034 85.81307148 395.85047352 100.09924269 C395.84818943 104.69781696 395.85171387 109.29638759 395.85445344 113.89496112 C395.85887819 122.87908788 395.8579494 131.86320624 395.8550408 140.84733331 C395.85277376 148.15506989 395.85247987 155.46280413 395.85356462 162.77054095 C395.85371785 163.81434282 395.85387109 164.85814469 395.85402896 165.93357691 C395.85434872 168.05466187 395.85467293 170.17574683 395.85500155 172.29683179 C395.85784669 192.14244182 395.8545845 211.98804722 395.84920119 231.83365649 C395.84473403 248.82737555 395.84551023 265.82108777 395.85011995 282.8148067 C395.8554828 302.59396882 395.85757209 322.37312688 395.85450768 342.15228963 C395.85418917 344.26516255 395.8538748 346.37803547 395.85356462 348.49090838 C395.85341034 349.53022788 395.85325607 350.56954737 395.85309712 351.6403614 C395.85223709 358.93135486 395.85368372 366.22234574 395.85604417 373.5133388 C395.8588614 382.40999585 395.85806356 391.30664407 395.85276343 400.20330012 C395.85015225 404.7342871 395.84907708 409.26525944 395.85241258 413.79624629 C395.87320406 445.05417394 395.87320406 445.05417394 395.34838045 456.47581744 C395.31959468 457.18290174 395.2908089 457.88998604 395.26115084 458.61849713 C394.38801877 473.59784481 385.07628898 485.9868781 374.71974885 496.13072467 C363.97311359 505.48700378 351.87834776 510.24773004 337.64588773 510.26215243 C336.95400296 510.26420507 336.26211818 510.2662577 335.5492672 510.26837254 C333.23164097 510.27402544 330.91407448 510.2725874 328.59644258 510.27116656 C326.91761001 510.27375118 325.23877806 510.27676462 323.55994695 510.28016996 C318.94675583 510.28823191 314.33358027 510.29002909 309.72038293 510.29076743 C304.7447289 510.2926194 299.76908292 510.3001675 294.79343355 510.30690265 C283.91309878 510.3204811 273.03276771 510.32651002 262.15242589 510.33091331 C255.35709226 510.33367673 248.56176006 510.33791429 241.7664274 510.34241748 C222.94786453 510.35460985 204.12930279 510.36490901 185.31073606 510.36829257 C184.1064317 510.36851214 182.90212734 510.3687317 181.66132892 510.36895792 C180.45415971 510.3691762 179.2469905 510.36939448 178.00324041 510.36961937 C175.55709934 510.37006283 173.11095828 510.3705094 170.66481721 510.37095904 C169.45144943 510.37118047 168.23808165 510.3714019 166.98794515 510.37163004 C147.33238485 510.37557703 127.67686165 510.39302818 108.02131569 510.41631857 C87.83564997 510.44004378 67.65000286 510.45249497 47.46432298 510.45366049 C36.13312295 510.45457663 24.80197125 510.46031348 13.47078454 510.4784801 C3.82080952 510.49389691 -5.82910224 510.49899223 -15.47908724 510.490742 C-20.40015965 510.48684102 -25.32110473 510.48773811 -30.24216139 510.50179935 C-34.75339077 510.51457133 -39.26439755 510.51331188 -43.77562677 510.50120863 C-45.40151128 510.49925733 -47.02741175 510.50230368 -48.65327389 510.511053 C-67.52196368 510.60610567 -83.13460533 506.65546827 -97.16745818 493.45860553 C-105.37109104 485.31977447 -113.89874954 471.98918231 -114.41020298 460.11324638 C-114.41369894 458.2353314 -114.41369894 458.2353314 -114.41726553 456.31947875 C-114.41991736 455.61953649 -114.42256919 454.91959423 -114.42530137 454.19844159 C-114.43300674 451.83533569 -114.43355402 449.47228164 -114.43415129 447.109164 C-114.43816514 445.40475936 -114.44260323 443.70035567 -114.44743085 441.99595314 C-114.45941154 437.29810734 -114.4650483 432.60027182 -114.469612 427.90241373 C-114.47556266 422.84079484 -114.48717407 417.77918828 -114.49790251 412.7175777 C-114.52244229 400.48432164 -114.53705776 388.25106149 -114.54996258 376.01778838 C-114.55367394 372.56238845 -114.55764723 369.10698892 -114.56171525 365.65158939 C-114.58695566 344.1950164 -114.60900936 322.73844277 -114.62144339 301.28185821 C-114.62437312 296.31001224 -114.62733477 291.33816629 -114.6303488 286.36632037 C-114.63109485 285.13058409 -114.6318409 283.89484781 -114.63260956 282.62166498 C-114.64525666 262.61413745 -114.67846969 242.60669891 -114.72015063 222.59921297 C-114.76259313 202.05768438 -114.78614128 181.51620131 -114.79136395 160.97462898 C-114.79477588 149.44154449 -114.80650506 137.90859897 -114.83946669 126.37555766 C-114.86750039 116.55057525 -114.87845202 106.72576029 -114.86727123 96.900741 C-114.86209274 91.89036764 -114.86491873 86.88034474 -114.88973677 81.87002254 C-114.91230271 77.27584659 -114.91143259 72.68227137 -114.8925329 68.08808438 C-114.88974312 66.43314969 -114.89527412 64.77817363 -114.91034584 63.12330522 C-115.06164605 45.41637844 -109.9631721 30.96386177 -97.53025115 17.88072467 C-87.33883879 8.15255833 -74.94071481 1.25250487 -60.70763171 0.81886744 C-60.0567055 0.79839498 -59.40577929 0.77792251 -58.73512804 0.75682966 C-56.57762528 0.69123076 -54.42001057 0.63318227 -52.26226103 0.57631183 C-51.5103098 0.55534029 -50.75835856 0.53436876 -49.98362092 0.51276173 C-33.32236653 0.05291628 -16.66653423 -0.0135707 0 0 Z M112.05568635 95.49009967 C102.53866375 106.24847305 97.94062263 117.61286522 97.1924051 131.81041217 C97.13041681 132.96016025 97.13041681 132.96016025 97.06717622 134.13313556 C96.48482992 145.83139678 96.35452937 157.54611984 96.15724885 169.25572467 C96.11393718 171.67890728 96.07031947 174.10208444 96.02638948 176.52525592 C95.92009186 182.39368686 95.82004769 188.26217606 95.71974885 194.13072467 C83.17974885 194.13072467 70.63974885 194.13072467 57.71974885 194.13072467 C57.71974885 213.93072467 57.71974885 233.73072467 57.71974885 254.13072467 C70.58974885 254.13072467 83.45974885 254.13072467 96.71974885 254.13072467 C96.71974885 314.19072467 96.71974885 374.25072467 96.71974885 436.13072467 C119.48974885 436.13072467 142.25974885 436.13072467 165.71974885 436.13072467 C165.71974885 375.74072467 165.71974885 315.35072467 165.71974885 253.13072467 C182.87974885 253.13072467 200.03974885 253.13072467 217.71974885 253.13072467 C218.43395915 245.53203723 219.14677017 237.93324581 219.85597932 230.33409381 C220.09766267 227.74905517 220.34017001 225.16409343 220.58351839 222.579211 C220.93318118 218.86350865 221.27987865 215.14753973 221.62599885 211.43150592 C221.73536775 210.27612826 221.84473665 209.12075061 221.95741975 207.93036151 C222.10757539 206.30924708 222.10757539 206.30924708 222.26076448 204.65538287 C222.34958894 203.70718173 222.43841341 202.75898059 222.52992952 201.78204608 C222.71211622 199.23733429 222.71974885 196.68194988 222.71974885 194.13072467 C204.56974885 193.80072467 186.41974885 193.47072467 167.71974885 193.13072467 C166.70284168 186.01237441 166.53366107 179.1575278 166.53444612 171.99791217 C166.53226142 169.76855066 166.51406913 167.53968634 166.49513948 165.31041217 C166.41465305 146.91887834 166.41465305 146.91887834 170.91579378 141.47447467 C179.04844297 134.67661378 195.82189108 136.7112013 206.09474885 136.50572467 C214.32412385 136.32009967 214.32412385 136.32009967 222.71974885 136.13072467 C222.71974885 116.00072467 222.71974885 95.87072467 222.71974885 75.13072467 C209.32381135 75.09978717 209.32381135 75.09978717 195.65724885 75.06822467 C192.87021516 75.05912066 190.08318147 75.05001666 187.21169221 75.04063678 C159.93245629 74.98678606 132.80492445 75.17703175 112.05568635 95.49009967 Z " fill="#808080" transform="translate(115.28025114536285,0.8692753314971924)"/>
</svg>
