<?xml version="1.0" encoding="UTF-8"?>
<svg version="1.1" xmlns="http://www.w3.org/2000/svg" width="512" height="512">
<path d="M0 0 C1.16921494 -0.00426498 2.33842987 -0.00852997 3.54307556 -0.01292419 C4.81699661 -0.01247101 6.09091766 -0.01201782 7.40344238 -0.0115509 C8.76550895 -0.01454472 10.12757467 -0.01794776 11.48963928 -0.02172852 C15.18171448 -0.03054826 18.87376649 -0.03290572 22.56585121 -0.0335443 C24.87336594 -0.03425574 27.18087479 -0.0363918 29.48838806 -0.03904152 C37.54064304 -0.04828691 45.59288149 -0.05237725 53.6451416 -0.05158997 C61.14838023 -0.05098878 68.65154706 -0.06155063 76.15476751 -0.07733363 C82.60075643 -0.09040913 89.04672187 -0.09577389 95.49272394 -0.09513456 C99.34095442 -0.09487965 103.18912101 -0.09772693 107.03733826 -0.10831261 C110.65544015 -0.11799423 114.27341706 -0.11807238 117.89152336 -0.11079597 C119.85026021 -0.10925215 121.80899705 -0.11759568 123.76771545 -0.12623596 C125.52153786 -0.11994423 125.52153786 -0.11994423 127.31079102 -0.11352539 C128.83168713 -0.11434254 128.83168713 -0.11434254 130.38330841 -0.1151762 C133.31429996 0.14797984 135.49498642 0.90670924 138.15539551 2.13371277 C137.42836426 3.53556824 137.42836426 3.53556824 136.68664551 4.96574402 C126.86410811 24.1211757 117.0687449 44.05046795 116.95227051 65.97746277 C116.94657043 66.82361145 116.94087036 67.66976013 116.93499756 68.54154968 C116.92558083 70.33007064 116.91902686 72.1186087 116.91516113 73.90715027 C116.90552493 76.5975774 116.87449898 79.28721678 116.84289551 81.97746277 C116.75483104 95.95747447 118.59264089 108.26622773 123.71789551 121.38371277 C124.06376709 122.27211853 124.40963867 123.16052429 124.76599121 124.07585144 C133.28174634 145.29249541 146.48324848 165.06454833 165.21789551 178.57121277 C165.87 179.04147888 166.52210449 179.511745 167.19396973 179.9962616 C196.03565617 200.47546245 230.27935964 208.38051254 265.39196777 203.36442566 C297.53467827 197.68576321 328.04740058 178.4669759 347.10925293 152.15031433 C362.12179443 130.67563247 370.32317773 105.94918873 370.39562988 79.75773621 C370.40524478 77.66649677 370.43628843 75.5762812 370.46789551 73.48527527 C370.56733326 60.951031 368.55058075 49.09248546 364.46789551 37.19621277 C364.21660889 36.4531488 363.96532227 35.71008484 363.7064209 34.94450378 C359.99076327 24.36502948 354.73658978 14.37277949 348.87023926 4.83293152 C348.15539551 3.13371277 348.15539551 3.13371277 349.15539551 0.13371277 C398.32539551 0.13371277 447.49539551 0.13371277 498.15539551 0.13371277 C498.19569854 59.29408889 498.19569854 59.29408889 498.20422363 84.10050964 C498.20618133 89.76839704 498.20820176 95.43628441 498.21032715 101.10417175 C498.2105909 101.81448955 498.21085465 102.52480734 498.21112639 103.25664991 C498.21546849 114.7045738 498.22334832 126.15249263 498.2325483 137.60041352 C498.24191992 149.36051504 498.24745854 161.12061391 498.249484 172.88071901 C498.25072961 179.48134776 498.25383566 186.08196713 498.26112556 192.68259239 C498.26793809 198.90165562 498.27000184 205.12070276 498.26850319 211.33976936 C498.26877717 213.61607831 498.27075113 215.89238783 498.27460098 218.16869354 C498.32731517 250.95923045 492.80111027 277.83754954 469.15539551 302.13371277 C462.72860082 308.48771205 455.99490379 313.64007197 448.15539551 318.13371277 C446.78641113 318.92068542 446.78641113 318.92068542 445.38977051 319.72355652 C426.65572238 329.78159056 408.4349278 329.86943161 387.75689435 329.78733611 C383.49639309 329.77592146 379.23599061 329.79353491 374.97550964 329.80723572 C366.65078157 329.82936581 358.32628003 329.82471285 350.0015434 329.81017251 C343.23052779 329.79883974 336.45957526 329.79736675 329.68855286 329.8027916 C328.72161268 329.80355776 327.7546725 329.80432393 326.75843111 329.80511331 C324.7935676 329.80671208 322.82870411 329.80833315 320.86384064 329.80997626 C302.47754592 329.8242038 284.09137623 329.80788819 265.70510203 329.78097443 C249.9591412 329.75863839 234.21336473 329.76251937 218.46740723 329.78556824 C200.14293116 329.81237931 181.81856443 329.82283078 163.49407148 329.80750692 C161.53679373 329.80591432 159.57951595 329.80434247 157.62223816 329.8027916 C156.65944235 329.80202022 155.69664655 329.80124884 154.70467511 329.80045409 C147.94874515 329.79615299 141.19288507 329.80338919 134.43696594 329.81518936 C126.19375501 329.82927204 117.95078186 329.82529398 109.70759785 329.79878564 C105.50888824 329.78572454 101.3105738 329.78036179 97.1118679 329.7970314 C64.77830941 329.9148423 64.77830941 329.9148423 51.15539551 324.13371277 C50.24567238 323.75402155 49.33594925 323.37433033 48.39865875 322.98313332 C46.32620696 322.06912146 44.37688312 321.05943564 42.40539551 319.94621277 C41.36427612 319.37592346 41.36427612 319.37592346 40.30212402 318.79411316 C15.25654127 304.67165843 -0.37872889 282.27336044 -8.93444824 255.24308777 C-12.07779009 242.60026758 -10.9799503 228.84734719 -10.95812988 215.92375183 C-10.95784748 213.57718405 -10.95800678 211.23061619 -10.95857239 208.88404846 C-10.95885829 202.54197832 -10.95299505 196.19992725 -10.94599843 189.85786152 C-10.94036626 183.89292448 -10.93937373 177.92798738 -10.93834656 171.96304819 C-10.93616368 160.15665156 -10.92952439 148.35026188 -10.92004395 136.54386902 C-10.91085001 125.08228083 -10.90377889 113.62069453 -10.89953613 102.15910339 C-10.89927341 101.45135113 -10.89901069 100.74359886 -10.89874 100.01439956 C-10.89743486 96.46343822 -10.89617118 92.91247688 -10.8949281 89.36151552 C-10.88457929 59.95224346 -10.86690697 30.54297819 -10.84460449 1.13371277 C-7.16784289 0.28692232 -3.76972579 0.00623068 0 0 Z " fill="#808080" transform="translate(12.8446044921875,181.8662872314453)"/>
<path d="M0 0 C5.28 0 10.56 0 16 0 C16 41.58 16 83.16 16 126 C22.27 126 28.54 126 35 126 C35 84.42 35 42.84 35 0 C71.84163569 -0.13251531 108.68304482 -0.24320633 145.52485101 -0.30639198 C149.8839994 -0.31389534 154.24314728 -0.32166136 158.60229492 -0.32958984 C159.47004592 -0.33116371 160.33779691 -0.33273757 161.23184339 -0.33435912 C175.24363153 -0.3603976 189.25527049 -0.40766635 203.26697042 -0.46291678 C217.66681053 -0.51922001 232.06657304 -0.5523935 246.4665187 -0.56453097 C255.3370707 -0.57272371 264.20720091 -0.59850585 273.07762293 -0.6474988 C279.17781115 -0.67945491 285.27778446 -0.68874692 291.37805011 -0.68100826 C294.88667673 -0.67720201 298.39457158 -0.68262453 301.90306473 -0.71523285 C321.82399556 -0.87289139 340.55233968 0.77778035 358.1875 10.875 C358.96448242 11.30135742 359.74146484 11.72771484 360.54199219 12.16699219 C366.53970416 15.53929062 371.87190217 19.40797551 377 24 C377.58136719 24.44085937 378.16273438 24.88171875 378.76171875 25.3359375 C395.32741521 38.07878093 407.35010579 61.5917033 410.29677486 82.06163692 C410.88109938 87.15435379 411.13960507 92.149901 411.11352539 97.27368164 C411.11367142 98.04552795 411.11381744 98.81737427 411.1139679 99.61260986 C411.11327898 102.12848866 411.10553513 104.64429061 411.09765625 107.16015625 C411.09578843 108.91849222 411.09436625 110.67682872 411.09336853 112.43516541 C411.08957198 117.03658515 411.0797665 121.63797274 411.06866455 126.23937988 C411.05838853 130.94538946 411.05385771 135.65140429 411.04882812 140.35742188 C411.03814136 149.57162862 411.02109977 158.78581162 411 168 C389.73808293 168.16356726 368.4762697 168.28698344 347.21385098 168.3626852 C337.34116514 168.39877022 327.46887037 168.44796123 317.59643555 168.52807617 C308.9909624 168.59787638 300.38577248 168.64301461 291.78002411 168.65861946 C287.22373997 168.66774057 282.66826603 168.68915461 278.11224174 168.7401104 C273.82172363 168.78770686 269.53234755 168.80226464 265.2415905 168.79175377 C263.6689991 168.79367591 262.09636862 168.80755299 260.52400589 168.83443832 C248.63479112 169.02771701 248.63479112 169.02771701 244.57307625 166.47430611 C242.83033479 164.74006533 241.43767972 162.98677605 240 161 C213.78193664 139.13999239 180.00054136 128.44496041 146 131 C124.97608514 133.020277 104.91765531 139.69992897 86.875 150.6875 C86.29105469 151.03643311 85.70710937 151.38536621 85.10546875 151.74487305 C81.78166606 153.85244153 78.86522138 156.08071166 76.09903526 158.88113785 C68.75648236 166.13302 63.31560024 169.51712459 52.91392517 169.49304199 C51.42516858 169.45059957 49.9364451 169.40698226 48.44775391 169.36230469 C46.83980058 169.35891062 45.23182873 169.36083772 43.62388611 169.36761475 C39.3029303 169.37102645 34.9860578 169.30101745 30.6660428 169.21672726 C26.13527515 169.14116799 21.60439011 169.1346205 17.0730896 169.12042236 C8.51262371 169.08328128 -0.04597989 168.9850285 -8.60562956 168.86422849 C-18.35882953 168.72960361 -28.11212346 168.66399775 -37.86602283 168.60388327 C-57.91171711 168.4788086 -77.95574075 168.26805176 -98 168 C-98.04660497 158.07187336 -98.08201095 148.14377329 -98.10362434 138.21555901 C-98.1140044 133.60411555 -98.1280563 128.99274765 -98.15087891 124.38134766 C-98.17281557 119.92038367 -98.18461192 115.45949176 -98.18975449 110.99847794 C-98.19341326 109.3074747 -98.2005563 107.61647482 -98.21146011 105.92550278 C-98.4152723 72.96870766 -88.2520731 48.42782964 -65.1875 24.875 C-64.54087402 24.21032715 -63.89424805 23.5456543 -63.22802734 22.86083984 C-62.61008301 22.24418457 -61.99213867 21.6275293 -61.35546875 20.9921875 C-60.53018677 20.16243408 -60.53018677 20.16243408 -59.68823242 19.31591797 C-58 18 -58 18 -54 17 C-54 52.97 -54 88.94 -54 126 C-48.06 126 -42.12 126 -36 126 C-36 86.73 -36 47.46 -36 7 C-24.75 2.5 -24.75 2.5 -20 3 C-18.90817925 9.16855234 -18.8652522 15.18892537 -18.88647461 21.44311523 C-18.88632858 22.57555161 -18.88618256 23.70798798 -18.8860321 24.8747406 C-18.88672651 28.60271141 -18.89449684 32.33063171 -18.90234375 36.05859375 C-18.9042096 38.64933749 -18.90563272 41.24008159 -18.90663147 43.83082581 C-18.91005423 49.94339814 -18.91792875 56.05594976 -18.92798096 62.16851431 C-18.93918099 69.13105678 -18.94466233 76.09360013 -18.94967639 83.05614936 C-18.96011248 97.37077616 -18.97789044 111.68538679 -19 126 C-12.73 126 -6.46 126 0 126 C0 84.42 0 42.84 0 0 Z M283 48 C277.78068937 55.55900161 278.84142119 65.94457494 278.83203125 74.75390625 C278.82870285 75.85419662 278.82537445 76.954487 278.82194519 78.08811951 C278.81690798 80.40175969 278.81453587 82.71540707 278.81469727 85.02905273 C278.81250448 88.55529744 278.79429715 92.08123211 278.77539062 95.60742188 C278.77245723 97.86458227 278.77047207 100.12174414 278.76953125 102.37890625 C278.76234573 103.42494522 278.75516022 104.47098419 278.74775696 105.54872131 C278.66798799 115.34781264 278.66798799 115.34781264 282.5859375 124.05859375 C283.17632812 124.51363281 283.76671875 124.96867187 284.375 125.4375 C285.25285156 126.14712891 285.25285156 126.14712891 286.1484375 126.87109375 C289.81156878 129.10452189 293.43544205 129.13227003 297.65136719 129.16113281 C298.78644714 129.17074036 299.9215271 129.1803479 301.09100342 129.19024658 C302.31394104 129.19449646 303.53687866 129.19874634 304.796875 129.203125 C306.69098114 129.21167511 306.69098114 129.21167511 308.62335205 129.22039795 C311.29646403 129.22984532 313.96946384 129.23674339 316.64257812 129.24023438 C320.04969968 129.24570587 323.45641895 129.26971272 326.86341476 129.29820633 C330.13287054 129.32143802 333.40234828 129.32328958 336.671875 129.328125 C337.8867157 129.3404718 339.1015564 129.3528186 340.35321045 129.36553955 C346.94214669 129.3483101 352.0673228 128.97244756 358 126 C362.33312026 120.77803456 363.11522365 116.6697373 363.17700195 110.05737305 C363.18983719 108.85900314 363.20267242 107.66063324 363.21589661 106.4259491 C363.22328354 105.13425308 363.23067047 103.84255707 363.23828125 102.51171875 C363.24235678 101.85113779 363.2464323 101.19055683 363.25063133 100.50995827 C363.27145094 97.0135594 363.28577046 93.5171993 363.29516602 90.02075195 C363.30622366 86.4228579 363.3406268 82.82558344 363.38033772 79.22790813 C363.40656798 76.44909062 363.41486343 73.67041943 363.41844749 70.89148903 C363.42564292 68.92453301 363.45205164 66.95767731 363.47883606 64.9908905 C363.46217653 58.11297025 363.23559154 53.5390775 359 48 C351.34027319 41.03661199 334.63722182 43.84755547 324.88500977 43.86962891 C322.07237338 43.87498121 319.25989712 43.86966188 316.44726562 43.86328125 C298.891297 42.75129554 298.891297 42.75129554 283 48 Z " fill="#808080" transform="translate(100,1)"/>
<path d="M0 0 C0.65613281 0.58523437 1.31226563 1.17046875 1.98828125 1.7734375 C6.78202247 6.30145027 10.45103402 11.46330844 14 17 C14.66257812 18.02996094 15.32515625 19.05992187 16.0078125 20.12109375 C30.06839971 43.2435423 34.49324958 71.61819705 28.54345703 98.02636719 C21.50897005 125.66426512 4.64295869 147.68889451 -19.6640625 162.22265625 C-43.5795381 175.9798211 -71.18355021 177.94829207 -97.703125 171.23046875 C-112.1313244 167.26628525 -124.48564892 160.49679222 -136 151 C-136.71800781 150.44054687 -137.43601563 149.88109375 -138.17578125 149.3046875 C-156.30024758 134.43167961 -167.51672101 110.03298215 -170 87 C-170.71490239 71.7396788 -171.38675052 56.48685273 -166 42 C-165.75862305 41.34821777 -165.51724609 40.69643555 -165.26855469 40.02490234 C-155.14756836 13.37297169 -136.2694092 -6.89446761 -110.41064453 -18.95166016 C-73.50701589 -35.00029104 -29.63618408 -26.59037724 0 0 Z M-121.8125 23.25 C-135.48660069 37.54112707 -143.42960222 57.18748453 -143 77 C-141.86259222 93.61857575 -135.44972621 108.14380157 -125 121 C-124.54367188 121.63035156 -124.08734375 122.26070313 -123.6171875 122.91015625 C-113.37801818 136.3682261 -94.25156694 144.58762868 -78 147 C-58.06760464 149.14366403 -38.68455047 142.93706947 -23 130.5625 C-9.03041746 118.30774645 1.74479353 101.65875398 3.17700195 82.65087891 C3.71449767 61.38660605 0.32506557 42.60088876 -14.5 26.5 C-16.29925413 24.62600668 -18.13749275 22.81313298 -20 21 C-20.67933594 20.32324219 -21.35867188 19.64648438 -22.05859375 18.94921875 C-50.97099573 -8.15991491 -94.59306245 -2.47180688 -121.8125 23.25 Z " fill="#808080" transform="translate(326,185)"/>
</svg>
