<?xml version="1.0" encoding="UTF-8"?>
<svg version="1.1" xmlns="http://www.w3.org/2000/svg" width="512" height="512">
<path d="M0 0 C4.19209626 3.59322536 8.13092913 7.00605025 11.99993801 10.87689018 C12.45543395 11.33123227 12.91092988 11.78557437 13.38022873 12.2536844 C14.88992486 13.76075579 16.39605852 15.27133511 17.90220642 16.7819519 C19.00110672 17.88041565 20.10022693 18.97865942 21.19954687 20.07670319 C24.20739574 23.08232358 27.2121303 26.09104036 30.21635163 29.10028601 C33.46120665 32.34946903 36.70896098 35.59575177 39.95635986 38.84239197 C45.57821928 44.46372764 51.19824832 50.08688789 56.81702995 55.7112999 C64.94079734 63.8432025 73.06733239 71.97233463 81.19454045 80.10079838 C94.38108153 93.28952681 107.565389 106.48048575 120.74829102 119.67285156 C133.55245628 132.48619917 146.35767961 145.29848785 159.16430664 158.109375 C159.96206896 158.90740532 160.75983128 159.70543563 161.58176821 160.52764869 C167.82102192 166.76898188 174.06033692 173.01025378 180.29967129 179.25150633 C210.86976163 209.83102629 241.43450326 240.41588721 272 271 C272.33 181.57 272.66 92.14 273 0 C327.45 0 381.9 0 438 0 C438 144.54 438 289.08 438 438 C246.07065611 438 246.07065611 438 177.90966797 437.59472656 C171.21062823 437.55556506 164.5115634 437.52175252 157.81249458 437.48800808 C149.04892773 437.44376591 140.28538205 437.39613757 131.52184105 437.34705925 C128.01423734 437.3274357 124.50663139 437.30867434 120.99901772 437.29092598 C80.66299806 437.08034416 40.33469839 436.49188657 0 436 C0 292.12 0 148.24 0 0 Z " fill="#548BF7" transform="translate(37,37)"/>
</svg>
